# xmcd CD database file
# Copyright (C) 1993-1998 Ti Kan
# 
# Track frame offsets:
#     150
#     13622
#     25785
#     38322
#     51420
#     61355
#     76072
#     89002
#     103165
#     114857
#     129270
#     141405
#     155930
#     172542
# 
# Disc length: 2458 seconds
# 
# Revision: 1
# Processed by: cddbd v1.4b41PL1 Copyright (c) Steve Scherf et al.
# Submitted via: DiscPlay 4.0.4
# 
DISCID=aa09980e
DTITLE=Jimmy Witherspoon - Spoon So Easy
DYEAR=1900
DGENRE=
TTITLE0=It Ain t No Secret
TTITLE1=Ain t Nobody s Business
TTITLE2=Live So Easy
TTITLE3=Congratulations
TTITLE4=I Can Make It Without You
TTITLE5=Goin  Down Slow
TTITLE6=When The Lights Go Out
TTITLE7=Crying
TTITLE8=T.W.A.
TTITLE9=Danger
TTITLE10=I Don t Know Why
TTITLE11=Garfield Avenue
TTITLE12=Mack and Jay
TTITLE13=Just To Prove My Love To You
EXTD=
EXTT0=
EXTT1=
EXTT2=
EXTT3=
EXTT4=
EXTT5=
EXTT6=
EXTT7=
EXTT8=
EXTT9=
EXTT10=
EXTT11=
EXTT12=
EXTT13=
PLAYORDER=
